# xmcd
#
# Track frame offsets: 
#        150
#        17439
#        37027
#        62954
#        98351
#        115018
#        145962
#        171179
#
# Disc length: 2611 seconds
#
# Revision: 0
# Processed by: cddbd v1.5.2PL0 Copyright (c) Steve Scherf et al.
# Submitted via: ExactAudioCopy v1.0b4
#
DISCID=610a3108
DTITLE=Louisiana Red And Sugar Blue - Red Funk 'N Blue (LP)
DYEAR=1978
DGENRE=Blues
TTITLE0=Lamplight Baby
TTITLE1=When My Mama Was Living
TTITLE2=The Women That I've Known
TTITLE3=Look At The Children Run and New Jersey Women
TTITLE4=Sugar's Harmonica Boogie
TTITLE5=Cadillac Blues
TTITLE6=Why Don't You Come On Home
TTITLE7=Soon Forgotten
EXTD=
EXTT0=
EXTT1=
EXTT2=
EXTT3=
EXTT4=
EXTT5=
EXTT6=
EXTT7=
PLAYORDER=
